<svg xmlns="http://www.w3.org/2000/svg" width="192" height="192" viewBox="0 0 192 192">
  <!-- Dark navy background -->
  <rect width="192" height="192" rx="38" fill="#0d1b2a"/>

  <!-- C arc (white) -->
  <path d="M 88 26 A 56 56 0 1 0 88 142 L 88 128 A 42 42 0 1 1 88 40 Z" fill="white"/>

  <!-- Football in C gap -->
  <circle cx="96" cy="84" r="27" fill="#0d1b2a" stroke="white" stroke-width="3"/>
  <polygon points="96,63 108,71 104,85 88,85 84,71" fill="white" opacity="0.9"/>
  <line x1="96" y1="63" x2="84" y2="71" stroke="#0d1b2a" stroke-width="1.5"/>
  <line x1="96" y1="63" x2="108" y2="71" stroke="#0d1b2a" stroke-width="1.5"/>
  <line x1="84" y1="71" x2="72" y2="80" stroke="#0d1b2a" stroke-width="1.5"/>
  <line x1="108" y1="71" x2="120" y2="80" stroke="#0d1b2a" stroke-width="1.5"/>
  <line x1="88" y1="85" x2="72" y2="92" stroke="#0d1b2a" stroke-width="1.5"/>
  <line x1="104" y1="85" x2="120" y2="92" stroke="#0d1b2a" stroke-width="1.5"/>

  <!-- S letterform (blue) -->
  <text x="132" y="92" font-family="Arial Black, Impact, sans-serif" font-size="58" font-weight="900" fill="#1565ff" dominant-baseline="middle">S</text>

  <!-- ClubOS label -->
  <text x="96" y="168" text-anchor="middle" font-family="system-ui, Arial, sans-serif" font-size="15" font-weight="700" letter-spacing="2" fill="white">ClubOS</text>
</svg>
