<svg xmlns="http://www.w3.org/2000/svg" width="192" height="192" viewBox="0 0 192 192">
  <rect width="192" height="192" rx="40" fill="#123524"/>
  <!-- Football / soccer ball simplified -->
  <circle cx="96" cy="88" r="42" fill="none" stroke="white" stroke-width="6"/>
  <!-- Pentagon patches -->
  <polygon points="96,52 110,62 105,78 87,78 82,62" fill="white" opacity="0.9"/>
  <polygon points="96,124 110,114 124,120 122,138 70,138 68,120 82,114" fill="white" opacity="0.15"/>
  <line x1="96" y1="52" x2="82" y2="62" stroke="white" stroke-width="3" opacity="0.5"/>
  <line x1="96" y1="52" x2="110" y2="62" stroke="white" stroke-width="3" opacity="0.5"/>
  <line x1="82" y1="62" x2="68" y2="74" stroke="white" stroke-width="3" opacity="0.5"/>
  <line x1="110" y1="62" x2="124" y2="74" stroke="white" stroke-width="3" opacity="0.5"/>
  <line x1="82" y1="78" x2="68" y2="90" stroke="white" stroke-width="3" opacity="0.5"/>
  <line x1="105" y1="78" x2="124" y2="90" stroke="white" stroke-width="3" opacity="0.5"/>
  <!-- Club name tag -->
  <rect x="28" y="148" width="136" height="28" rx="8" fill="rgba(255,255,255,0.15)"/>
  <text x="96" y="167" text-anchor="middle" font-family="system-ui, sans-serif" font-size="13" font-weight="700" letter-spacing="2" fill="white" opacity="0.9">CLUB CRM</text>
</svg>
